# xmcd
#
# Track frame offsets:
# 182
# 15537
# 30652
# 49105
# 61047
# 81045
# 101042
# 122215
# 142470
# 166577
#
# Disc length: 2420 seconds
#
# Revision: 0
# Processed by: cddbd v1.5.1PL0 Copyright (c) Steve Scherf et al.
# Submitted via: Audion 3.0.2 (http://www.panic.com/audion/)
#
DISCID=7e09720a
DTITLE=Various Artist - Miami Bass: Heat Mix '96
DYEAR=1900
DGENRE=
TTITLE0=Do the Nasty Dance - The Dogs
TTITLE1=One Leg Up - Half-Pint
TTITLE2=30 'n Lows - Bass Patrol
TTITLE3=Girls-N-Da-House - Uncle Al
TTITLE4=Shake That Thang - Vicious Bass
TTITLE5=Big Booty Girls - Half-Pint
TTITLE6=Get It Boy - M-4-Sers
TTITLE7=Crack Rock - The Dogs
TTITLE8=Rock This Planet - Bass Patrol
TTITLE9=Dogga Mixx II - Dogs II
EXTD=
EXTT0=
EXTT1=
EXTT2=
EXTT3=
EXTT4=
EXTT5=
EXTT6=
EXTT7=
EXTT8=
EXTT9=
PLAYORDER=
